HIERARCHY
ROOT reference
{
  OFFSET 0 0 0
  CHANNELS 6 Xposition Yposition Zposition Zrotation Xrotation Yrotation
  JOINT Hips
  {
    OFFSET 26.1635 91.0658 86.9824
    CHANNELS 6 Xposition Yposition Zposition Zrotation Xrotation Yrotation
    JOINT Spine
    {
      OFFSET 0 8.25043 0
      CHANNELS 6 Xposition Yposition Zposition Zrotation Xrotation Yrotation
      JOINT Spine1
      {
        OFFSET 0 26.9735 0
        CHANNELS 6 Xposition Yposition Zposition Zrotation Xrotation Yrotation
        JOINT Neck
        {
          OFFSET 0 26.8627 2.44206
          CHANNELS 6 Xposition Yposition Zposition Zrotation Xrotation Yrotation
          JOINT Head
          {
            OFFSET 0 14.0861 -2.0123
            CHANNELS 6 Xposition Yposition Zposition Zrotation Xrotation Yrotation
            End Site
            {
              OFFSET 0 25.1537 0
            }
          }
        }
        JOINT LeftShoulder
        {
          OFFSET 4.03461 23.8974 -0.31355
          CHANNELS 6 Xposition Yposition Zposition Zrotation Xrotation Yrotation
          JOINT LeftArm
          {
            OFFSET 14.6104 0 0
            CHANNELS 6 Xposition Yposition Zposition Zrotation Xrotation Yrotation
            JOINT LeftForeArm
            {
              OFFSET 28.8903 0 0
              CHANNELS 6 Xposition Yposition Zposition Zrotation Xrotation Yrotation
              JOINT LeftHand
              {
                OFFSET 28.8168 0 0
                CHANNELS 6 Xposition Yposition Zposition Zrotation Xrotation Yrotation
                End Site
                {
                  OFFSET 15.0922 0 0
                }
              }
            }
          }
        }
        JOINT RightShoulder
        {
          OFFSET -4.01401 23.8974 -0.31355
          CHANNELS 6 Xposition Yposition Zposition Zrotation Xrotation Yrotation
          JOINT RightArm
          {
            OFFSET -14.6104 0 0
            CHANNELS 6 Xposition Yposition Zposition Zrotation Xrotation Yrotation
            JOINT RightForeArm
            {
              OFFSET -28.8903 0 0
              CHANNELS 6 Xposition Yposition Zposition Zrotation Xrotation Yrotation
              JOINT RightHand
              {
                OFFSET -28.8168 0 0
                CHANNELS 6 Xposition Yposition Zposition Zrotation Xrotation Yrotation
                End Site
                {
                  OFFSET -15.0922 0 0
                }
              }
            }
          }
        }
      }
    }
    JOINT LeftUpLeg
    {
      OFFSET 10.0615 0 0
      CHANNELS 6 Xposition Yposition Zposition Zrotation Xrotation Yrotation
      JOINT LeftLeg
      {
        OFFSET 0 -36.0896 0
        CHANNELS 6 Xposition Yposition Zposition Zrotation Xrotation Yrotation
        JOINT LeftFoot
        {
          OFFSET 0 -47.1136 0
          CHANNELS 6 Xposition Yposition Zposition Zrotation Xrotation Yrotation
          JOINT LeftToeBase
          {
            OFFSET 0 -6.53997 15.0922
            CHANNELS 6 Xposition Yposition Zposition Zrotation Xrotation Yrotation
            End Site
            {
              OFFSET 0 0 4.0246
            }
          }
        }
      }
    }
    JOINT RightUpLeg
    {
      OFFSET -10.0615 0 0
      CHANNELS 6 Xposition Yposition Zposition Zrotation Xrotation Yrotation
      JOINT RightLeg
      {
        OFFSET 0 -36.0896 0
        CHANNELS 6 Xposition Yposition Zposition Zrotation Xrotation Yrotation
        JOINT RightFoot
        {
          OFFSET 0 -47.1136 0
          CHANNELS 6 Xposition Yposition Zposition Zrotation Xrotation Yrotation
          JOINT RightToeBase
          {
            OFFSET 0 -6.53997 15.0922
            CHANNELS 6 Xposition Yposition Zposition Zrotation Xrotation Yrotation
            End Site
            {
              OFFSET 0 0 4.0246
            }
          }
        }
      }
    }
  }
}
MOTION
Frames:	9
Frame Time:	0.004
0 0 0 0 0 -0 17.813 78.0988 -110.132 6.90674 2.07288 86.6788 0 8.25043 0 0.171091 7.15129 1.67488 0 26.9735 0 1.92276 -1.55846 1.71168 0 26.8627 2.44206 16.4936 21.9571 -25.0489 -2.84217e-014 14.0861 -2.0123 16.3228 -12.6061 -21.2305 4.03461 23.8974 -0.31355 1.77251 13.1611 7.74491 14.6104 -1.42109e-014 -3.55271e-015 -46.1038 -16.9801 -2.98884 28.8903 0 0 1.92173 -35.2596 -42.7496 28.8168 0 0 16.0679 -34.3247 2.73354 -4.01401 23.8974 -0.31355 -11.2459 -1.39988 -4.15486 -14.6104 2.84217e-014 0 22.9341 -1.32388 0.394881 -28.8903 -1.42109e-014 0 -16.9064 -30.4845 0.656162 -28.8168 1.42109e-014 0 -15.7098 -29.7029 -5.8364 10.0615 1.42109e-014 0 21.086 1.92348 -14.4365 0 -36.0896 -3.55271e-015 -6.47415 30.7215 -22.12 0 -47.1136 1.42109e-014 -5.92797 -21.1817 34.4585 2.84217e-014 -6.53997 15.0922 1.59028e-015 -2.5842e-015 -0 -10.0615 1.42109e-014 3.55271e-015 -21.1311 -12.9485 7.2255 0 -36.0896 -7.10543e-015 2.4411 44.7002 8.71166 -1.42109e-014 -47.1136 -1.77636e-015 9.66944 -29.655 -3.60568 0 -6.53997 15.0922 -1.59028e-015 3.72721e-016 -3.97569e-016 
0 0 0 0 0 -0 17.8464 78.2092 -109.773 6.8853 2.20005 86.8349 0 8.25043 3.55271e-015 0.08307 7.07825 1.54968 0 26.9735 5.32907e-015 2.03938 -1.46916 1.58093 -1.42109e-014 26.8627 2.44206 16.5195 21.9422 -25.0321 2.84217e-014 14.0861 -2.0123 16.2253 -12.6527 -21.2308 4.03461 23.8974 -0.31355 1.69198 13.0429 7.75458 14.6104 -2.84217e-014 -1.77636e-015 -46.1467 -16.9155 -2.86169 28.8903 0 0 1.93986 -35.4045 -42.48 28.8168 0 0 15.8324 -34.4768 2.71187 -4.01401 23.8974 -0.31355 -11.361 -1.21512 -4.1319 -14.6104 0 0 22.96 -1.8306 0.595527 -28.8903 2.84217e-014 3.55271e-015 -16.7257 -30.2591 0.698996 -28.8168 -1.42109e-014 -1.42109e-014 -15.688 -29.4891 -5.69553 10.0615 0 3.55271e-015 21.1117 2.05404 -14.9444 2.84217e-014 -36.0896 0 -6.61922 30.2491 -21.5775 1.42109e-014 -47.1136 0 -6.15862 -20.6304 34.7228 0 -6.53997 15.0922 -0 -7.95139e-016 -0 -10.0615 0 0 -20.961 -12.885 7.03165 0 -36.0896 0 2.27868 44.8235 9.13324 -1.42109e-014 -47.1136 0 9.20442 -29.7937 -4.08984 0 -6.53997 15.0922 -7.95139e-016 2.73329e-016 -0 
0 0 0 0 0 -0 17.8283 78.3232 -109.423 6.81429 2.28827 86.8647 1.42109e-014 8.25043 -3.55271e-015 0.038003 7.06036 1.48395 -1.42109e-014 26.9735 0 2.12591 -1.49998 1.51407 1.42109e-014 26.8627 2.44206 16.4926 21.9957 -25.0409 0 14.0861 -2.0123 16.2805 -12.7005 -21.2128 4.03461 23.8974 -0.31355 1.59875 13.0498 7.81945 14.6104 0 1.77636e-015 -46.1548 -17.0571 -2.88228 28.8903 2.84217e-014 0 1.81467 -35.4052 -42.1624 28.8168 1.42109e-014 0 15.6436 -34.5403 2.58761 -4.01401 23.8974 -0.31355 -11.3993 -1.22406 -4.05146 -14.6104 0 0 22.9209 -1.84475 0.647473 -28.8903 1.42109e-014 0 -16.6518 -30.221 0.696476 -28.8168 0 0 -15.7711 -29.443 -5.73483 10.0615 0 0 21.1694 2.12409 -15.1962 0 -36.0896 0 -6.73053 29.8623 -21.1541 0 -47.1136 -1.42109e-014 -6.34247 -20.0801 35.0198 2.84217e-014 -6.53997 15.0922 1.59028e-015 -2.78299e-015 -0 -10.0615 0 -3.55271e-015 -20.7137 -12.9402 7.21983 -1.42109e-014 -36.0896 0 2.35163 44.8738 8.97153 -1.42109e-014 -47.1136 8.88178e-016 8.91244 -29.848 -4.32241 -1.42109e-014 -6.53997 15.0922 -7.95139e-016 -9.93923e-017 -0 
0 0 0 0 0 -0 17.7972 78.4385 -109.069 6.78332 2.35819 86.8391 1.42109e-014 8.25043 -3.55271e-015 -0.00710299 7.10842 1.45763 1.42109e-014 26.9735 -1.77636e-015 2.22191 -1.54871 1.48716 0 26.8627 2.44206 16.5153 22.0283 -25.0679 0 14.0861 -2.0123 16.2631 -12.7593 -21.2306 4.03461 23.8974 -0.31355 1.55441 12.8501 7.71572 14.6104 2.84217e-014 -1.77636e-015 -46.1468 -16.9255 -2.61924 28.8903 -2.84217e-014 -7.10543e-015 1.85834 -35.6184 -41.8585 28.8168 1.42109e-014 -1.42109e-014 15.5443 -34.7443 2.62425 -4.01401 23.8974 -0.31355 -11.467 -1.28519 -3.99781 -14.6104 0 3.55271e-015 22.8991 -1.92292 0.69412 -28.8903 0 -3.55271e-015 -16.5644 -30.1419 0.663858 -28.8168 -1.42109e-014 0 -15.5826 -29.3993 -5.54218 10.0615 1.42109e-014 -3.55271e-015 21.2516 2.22515 -15.366 -2.84217e-014 -36.0896 3.55271e-015 -6.84459 29.5249 -20.8548 -2.84217e-014 -47.1136 1.42109e-014 -6.495 -19.5687 35.3805 0 -6.53997 15.0922 -1.51728e-032 -1.09332e-015 -7.95139e-016 -10.0615 -1.42109e-014 3.55271e-015 -20.4242 -12.9933 7.44152 0 -36.0896 0 2.37733 44.9235 8.80813 0 -47.1136 0 8.65308 -29.8819 -4.50182 -1.42109e-014 -6.53997 15.0922 7.95139e-016 -4.96962e-016 -0 
0 0 0 0 0 -0 17.7741 78.5604 -108.727 6.68894 2.46864 86.8843 -1.42109e-014 8.25043 0 -0.072778 7.07134 1.39607 0 26.9735 3.55271e-015 2.31875 -1.59268 1.42375 0 26.8627 2.44206 16.4075 22.0484 -25.0522 0 14.0861 -2.0123 16.3969 -12.7303 -21.1886 4.03461 23.8974 -0.31355 1.46534 13.0066 7.8167 14.6104 2.84217e-014 1.77636e-015 -46.2409 -17.1457 -2.86635 28.8903 0 0 1.75257 -35.6598 -41.4226 28.8168 0 -1.42109e-014 15.4454 -34.8458 2.45951 -4.01401 23.8974 -0.31355 -11.5676 -1.35515 -3.94843 -14.6104 -2.84217e-014 0 22.9537 -1.71206 0.735691 -28.8903 0 3.55271e-015 -16.6015 -30.1711 0.572629 -28.8168 0 -1.42109e-014 -15.578 -29.4448 -5.50381 10.0615 -1.42109e-014 0 21.2739 2.23286 -15.5703 0 -36.0896 0 -6.94832 29.187 -20.5165 0 -47.1136 0 -6.03582 -18.6277 35.9211 0 -6.53997 15.0922 1.59028e-015 -1.98785e-016 -0 -10.0615 1.42109e-014 3.55271e-015 -20.2318 -13.0098 7.64569 -1.42109e-014 -36.0896 1.42109e-014 2.51421 44.8564 8.53289 0 -47.1136 -8.88178e-016 8.37758 -29.9366 -4.65108 -1.42109e-014 -6.53997 15.0922 4.82771e-033 -3.47873e-016 7.95139e-016 
0 0 0 0 0 -0 17.7363 78.7025 -108.387 6.54495 2.53593 86.9154 0 8.25043 0 -0.05351 6.99803 1.33738 1.42109e-014 26.9735 0 2.34504 -1.65266 1.36788 -2.84217e-014 26.8627 2.44206 16.4453 22.059 -25.0696 0 14.0861 -2.0123 16.3358 -12.7155 -21.2199 4.03461 23.8974 -0.31355 1.3797 13.0366 7.8775 14.6104 0 -1.77636e-015 -46.2203 -17.3565 -2.94937 28.8903 2.84217e-014 0 1.57357 -35.6723 -41.0905 28.8168 -1.42109e-014 -1.42109e-014 15.4888 -34.9191 2.44625 -4.01401 23.8974 -0.31355 -11.5903 -1.36814 -3.87982 -14.6104 0 0 22.9302 -1.80689 0.787524 -28.8903 1.42109e-014 0 -16.5236 -30.0674 0.559566 -28.8168 -1.42109e-014 -1.42109e-014 -15.5255 -29.3608 -5.36833 10.0615 0 -3.55271e-015 21.3195 2.18323 -15.6556 0 -36.0896 0 -6.98275 28.8804 -20.2837 0 -47.1136 0 -5.95642 -17.8945 36.2945 0 -6.53997 15.0922 -1.59028e-015 2.38542e-015 -0 -10.0615 0 -3.55271e-015 -19.9681 -13.1414 7.33779 -1.42109e-014 -36.0896 7.10543e-015 2.11149 44.8766 8.86826 2.84217e-014 -47.1136 -8.88178e-016 8.27556 -29.8276 -4.64276 0 -6.53997 15.0922 -0 -1.49089e-016 -0 
0 0 0 0 0 -0 17.7105 78.8261 -108.066 6.49248 2.64862 86.9445 1.42109e-014 8.25043 0 -0.110429 7.03078 1.28308 0 26.9735 -1.77636e-015 2.42061 -1.74294 1.31308 0 26.8627 2.44206 16.371 22.0887 -25.0615 0 14.0861 -2.0123 16.3822 -12.6905 -21.203 4.03461 23.8974 -0.31355 1.29965 13.0622 7.84909 14.6104 1.42109e-014 1.77636e-015 -46.1862 -17.5217 -2.90922 28.8903 0 0 1.38336 -35.7418 -40.7686 28.8168 0 -1.42109e-014 15.5354 -35.0607 2.35351 -4.01401 23.8974 -0.31355 -11.7109 -1.32175 -3.79691 -14.6104 -2.84217e-014 0 22.9713 -2.06024 0.824307 -28.8903 -2.84217e-014 0 -16.377 -29.9455 0.58319 -28.8168 0 -1.42109e-014 -15.4571 -29.2634 -5.15941 10.0615 1.42109e-014 0 21.3282 2.22088 -15.8719 0 -36.0896 -3.55271e-015 -7.13371 28.5382 -19.8493 -1.42109e-014 -47.1136 0 -5.73318 -17.0943 36.6241 0 -6.53997 15.0922 3.18055e-015 -5.96354e-016 7.95139e-016 -10.0615 0 3.55271e-015 -19.8037 -13.1079 7.41654 -1.42109e-014 -36.0896 0 2.11663 44.7596 8.5979 0 -47.1136 0 8.14848 -29.8384 -4.52952 -1.42109e-014 -6.53997 15.0922 7.95139e-016 1.49089e-016 3.97569e-016 
0 0 0 0 0 -0 17.6814 78.9563 -107.724 6.36172 2.76009 87.025 0 8.25043 -7.10543e-015 -0.136218 6.96144 1.20789 1.42109e-014 26.9735 3.55271e-015 2.42765 -1.80509 1.23779 -1.42109e-014 26.8627 2.44206 16.4292 22.0858 -25.0706 0 14.0861 -2.0123 16.3243 -12.6765 -21.2256 4.03461 23.8974 -0.31355 1.27178 12.8235 7.83199 14.6104 2.84217e-014 1.77636e-015 -46.0596 -17.5071 -2.74037 28.8903 0 7.10543e-015 1.23832 -35.812 -40.3727 28.8168 0 -1.42109e-014 15.6609 -35.1797 2.33286 -4.01401 23.8974 -0.31355 -11.7012 -1.31683 -3.75659 -14.6104 2.84217e-014 3.55271e-015 22.935 -2.07712 0.90087 -28.8903 0 0 -16.3194 -29.8948 0.518387 -28.8168 -1.42109e-014 1.42109e-014 -15.3306 -29.2421 -5.02079 10.0615 0 -7.10543e-015 21.3227 2.13767 -15.8969 0 -36.0896 3.55271e-015 -7.14252 28.2759 -19.6111 0 -47.1136 0 -5.66432 -16.4537 36.9601 2.84217e-014 -6.53997 15.0922 -3.18055e-015 -2.78299e-015 -0 -10.0615 0 0 -19.6441 -13.0617 7.68486 0 -36.0896 -7.10543e-015 2.37297 44.5283 7.95514 1.42109e-014 -47.1136 8.88178e-016 7.98957 -29.8866 -4.41003 0 -6.53997 15.0922 -7.95139e-016 -9.93923e-017 -0 
0 0 0 0 0 -0 17.6615 79.0916 -107.407 6.31427 2.8671 87.0886 0 8.25043 0 -0.154323 6.97236 1.14288 0 26.9735 -3.55271e-015 2.46049 -1.85422 1.1733 0 26.8627 2.44206 16.4457 22.0421 -25.0811 0 14.0861 -2.0123 16.2042 -12.6286 -21.2786 4.03461 23.8974 -0.31355 1.21176 12.8636 7.81173 14.6104 -1.42109e-014 1.77636e-015 -46.0353 -17.6424 -2.78462 28.8903 0 -1.42109e-014 1.11883 -35.8852 -39.9445 28.8168 0 -1.42109e-014 15.7424 -35.3049 2.21752 -4.01401 23.8974 -0.31355 -11.7624 -1.38064 -3.7351 -14.6104 0 3.55271e-015 22.9726 -1.8614 0.937235 -28.8903 1.42109e-014 0 -16.3607 -29.9188 0.446435 -28.8168 0 0 -15.1723 -29.2933 -4.91761 10.0615 -1.42109e-014 0 21.3073 2.16139 -16.0502 -2.84217e-014 -36.0896 -7.10543e-015 -7.21188 27.9633 -19.2921 -2.84217e-014 -47.1136 1.42109e-014 -5.27929 -15.5669 37.2549 0 -6.53997 15.0922 -3.18055e-015 -1.19271e-015 1.59028e-015 -10.0615 -1.42109e-014 0 -19.4974 -12.9588 7.73062 0 -36.0896 0 2.38942 44.3311 7.69882 0 -47.1136 -1.77636e-015 7.85236 -29.8834 -4.30783 0 -6.53997 15.0922 7.95139e-016 4.96962e-017 7.95139e-016 
